<svg width="1333" height="681" viewBox="0 0 1333 681" fill="none" xmlns="http://www.w3.org/2000/svg">
<path d="M22.6631 -46.4658C24.5786 -52.8102 31.2747 -56.4006 37.6191 -54.4854C43.9634 -52.5698 47.5539 -45.8737 45.6387 -39.5293C45.6375 -39.5253 45.6352 -39.5172 45.6318 -39.5059C45.6249 -39.4826 45.6127 -39.4435 45.5967 -39.3896C45.5646 -39.2818 45.5148 -39.113 45.4482 -38.8857C45.3148 -38.4298 45.1149 -37.737 44.8564 -36.8232C44.3394 -34.9951 43.5901 -32.2804 42.6797 -28.7959C40.8582 -21.8238 38.3942 -11.7824 35.8545 0.40332C30.7635 24.8297 25.4182 57.6198 24.2383 91.4648C23.0526 125.477 26.1158 159.585 37.1182 187.187C47.9468 214.352 66.22 234.801 96.0605 243.537C126.237 252.371 156.666 245.994 187.985 230.604C219.486 215.126 250.528 191.217 281.469 166.743C311.88 142.688 342.542 117.777 371.857 102.385C401.305 86.9229 432.411 79.4717 462.206 94.8975C478.688 103.431 487.772 119.261 492.318 137.607C496.838 155.846 497.288 178.024 495.457 202.026C491.794 250.055 478.636 309.161 465.979 366.339C453.187 424.132 440.928 479.868 438.224 522.909C436.868 544.488 438.021 561.626 441.99 573.773C445.798 585.427 451.676 591.259 459.832 593.473C467.478 595.548 477.876 593.03 492.137 581.948C506.151 571.058 521.632 553.593 538.3 531.025C571.586 485.957 607.507 423.491 644.031 360.635C680.29 298.235 717.171 235.4 751.849 191.114C769.146 169.024 786.535 150.698 803.693 139.396C820.918 128.052 839.963 122.563 858.621 130.614C874.292 137.377 885.471 147.524 892.595 160.571C899.586 173.376 902.214 188.128 902.424 203.547C902.836 233.903 893.777 270.64 884.938 307.715C875.916 345.562 866.836 384.714 865.606 422.375C864.384 459.824 870.982 494.72 892.432 524.547C916.084 557.437 958.343 582.8 1010.46 602.004C1062.29 621.104 1122.32 633.55 1179.61 641.613C1236.83 649.667 1290.93 653.295 1330.76 654.906C1350.66 655.711 1366.96 656.011 1378.28 656.11C1383.93 656.16 1388.34 656.159 1391.32 656.146C1392.81 656.14 1393.94 656.131 1394.7 656.123C1395.08 656.119 1395.36 656.115 1395.55 656.112C1395.64 656.111 1395.71 656.111 1395.76 656.11C1395.78 656.11 1395.79 656.109 1395.8 656.109C1395.81 656.109 1395.81 656.109 1395.81 656.109L1396 668.108C1396.2 680.104 1396.19 680.106 1396.19 680.106C1396.18 680.107 1396.18 680.106 1396.17 680.106C1396.15 680.107 1396.13 680.107 1396.11 680.107C1396.05 680.108 1395.97 680.109 1395.87 680.11C1395.66 680.113 1395.35 680.118 1394.95 680.122C1394.15 680.13 1392.96 680.14 1391.42 680.146C1388.34 680.16 1383.83 680.16 1378.06 680.109C1366.53 680.008 1349.97 679.702 1329.79 678.886C1289.44 677.253 1234.51 673.576 1176.27 665.379C1118.09 657.192 1056.22 644.443 1002.16 624.523C948.381 604.707 900.749 577.223 872.945 538.56C847.385 503.015 840.291 462.274 841.619 421.592C842.94 381.123 852.653 339.649 861.593 302.148C870.717 263.875 878.788 230.54 878.426 203.873C878.248 190.78 876.013 180.284 871.529 172.072C867.178 164.103 860.271 157.467 849.112 152.651C840.94 149.125 830.731 150.325 816.895 159.438C802.992 168.596 787.511 184.499 770.745 205.91C737.297 248.627 701.278 309.885 664.782 372.692C628.552 435.043 591.865 498.897 557.605 545.284C540.5 568.444 523.474 587.991 506.862 600.899C490.497 613.616 472.149 621.683 453.545 616.634C435.451 611.722 424.721 598.195 419.177 581.228C413.794 564.753 412.851 544.004 414.271 521.404C417.119 476.088 429.898 418.295 442.547 361.152C455.332 303.395 468.02 246.158 471.525 200.201C473.279 177.211 472.643 157.985 469.023 143.38C465.431 128.883 459.321 120.43 451.171 116.21C431.7 106.13 409.731 109.606 383.014 123.635C356.164 137.733 327.571 160.876 296.356 185.566C265.671 209.838 232.716 235.365 198.569 252.144C164.242 269.011 127.371 277.711 89.3164 266.57C50.926 255.332 27.7647 228.537 14.8242 196.073C2.05745 164.045 -0.983871 126.136 0.253906 90.6289C1.49752 54.9552 7.10388 20.7228 12.3594 -4.49316C14.9928 -17.1283 17.5521 -27.5644 19.459 -34.8633C20.4127 -38.5137 21.204 -41.3835 21.7617 -43.3555C22.0406 -44.3415 22.2609 -45.1037 22.4141 -45.627C22.4906 -45.8884 22.551 -46.09 22.5928 -46.2305C22.6136 -46.3005 22.6308 -46.3553 22.6426 -46.3945C22.6484 -46.414 22.6517 -46.4306 22.6553 -46.4424C22.6569 -46.4479 22.6592 -46.454 22.6602 -46.457C22.6632 -46.4587 22.7208 -46.4433 24.0977 -46.0293L34.1504 -42.9971L22.6631 -46.4658ZM1395.81 656.11C1402.44 656.005 1407.9 661.29 1408 667.916C1408.11 674.543 1402.82 680.001 1396.2 680.106L1395.81 656.11Z" fill="#FF8E51" fill-opacity="0.08"/>
</svg>
